<mxfile host="app.diagrams.net" modified="2023-02-05T10:37:09.376Z" agent="5.0 (Macintosh; Intel Mac OS X 10_15_7) AppleWebKit/537.36 (KHTML, like Gecko) Chrome/109.0.0.0 Safari/537.36" etag="rOv3dcrNG3Onjj1DeO5v" version="20.8.16" type="github">
  <diagram name="第 1 页" id="JV_-U01yO16fVguvwmtD">
    <mxGraphModel dx="984" dy="555" grid="1" gridSize="10" guides="1" tooltips="1" connect="1" arrows="1" fold="1" page="1" pageScale="1" pageWidth="827" pageHeight="1169" math="0" shadow="0">
      <root>
        <mxCell id="0" />
        <mxCell id="1" parent="0" />
        <mxCell id="6kAA_ubNPOUCkeBWZdui-20" value="&lt;font style=&quot;font-size: 20px;&quot;&gt;知识库&lt;/font&gt;" style="shape=cylinder3;whiteSpace=wrap;html=1;boundedLbl=1;backgroundOutline=1;size=15;labelBackgroundColor=none;fillColor=#e3c800;strokeColor=#B09500;sketch=1;curveFitting=1;jiggle=2;rounded=1;fontStyle=1;opacity=40;fontColor=#000000;spacingBottom=39;textOpacity=40;" vertex="1" parent="1">
          <mxGeometry x="310" y="40" width="580" height="270" as="geometry" />
        </mxCell>
        <mxCell id="6kAA_ubNPOUCkeBWZdui-27" style="edgeStyle=orthogonalEdgeStyle;curved=1;rounded=1;sketch=1;hachureGap=4;jiggle=2;curveFitting=1;orthogonalLoop=1;jettySize=auto;html=1;entryX=-0.1;entryY=0.65;entryDx=0;entryDy=0;entryPerimeter=0;strokeWidth=1;fontFamily=Architects Daughter;fontSource=https%3A%2F%2Ffonts.googleapis.com%2Fcss%3Ffamily%3DArchitects%2BDaughter;fontSize=20;startSize=5;endSize=5;opacity=80;" edge="1" parent="1" source="6kAA_ubNPOUCkeBWZdui-2" target="6kAA_ubNPOUCkeBWZdui-26">
          <mxGeometry relative="1" as="geometry" />
        </mxCell>
        <mxCell id="6kAA_ubNPOUCkeBWZdui-30" style="edgeStyle=orthogonalEdgeStyle;curved=1;rounded=1;sketch=1;hachureGap=4;jiggle=2;curveFitting=1;orthogonalLoop=1;jettySize=auto;html=1;entryX=0;entryY=0.5;entryDx=0;entryDy=0;strokeWidth=1;fontFamily=Architects Daughter;fontSource=https%3A%2F%2Ffonts.googleapis.com%2Fcss%3Ffamily%3DArchitects%2BDaughter;fontSize=20;startSize=5;endSize=5;opacity=80;" edge="1" parent="1" source="6kAA_ubNPOUCkeBWZdui-2" target="6kAA_ubNPOUCkeBWZdui-29">
          <mxGeometry relative="1" as="geometry" />
        </mxCell>
        <mxCell id="6kAA_ubNPOUCkeBWZdui-2" value="知识门户A" style="ellipse;whiteSpace=wrap;html=1;labelBackgroundColor=none;fillColor=#cce5ff;strokeColor=#36393d;sketch=1;curveFitting=1;jiggle=2;rounded=1;fontStyle=1" vertex="1" parent="1">
          <mxGeometry x="30" y="50" width="120" height="70" as="geometry" />
        </mxCell>
        <mxCell id="6kAA_ubNPOUCkeBWZdui-22" style="rounded=1;orthogonalLoop=1;jettySize=auto;html=1;labelBackgroundColor=none;strokeColor=#006658;fontColor=default;sketch=1;curveFitting=1;jiggle=2;fontStyle=1;edgeStyle=orthogonalEdgeStyle;curved=1;opacity=80;" edge="1" parent="1" source="6kAA_ubNPOUCkeBWZdui-3" target="6kAA_ubNPOUCkeBWZdui-21">
          <mxGeometry relative="1" as="geometry" />
        </mxCell>
        <mxCell id="6kAA_ubNPOUCkeBWZdui-34" style="edgeStyle=orthogonalEdgeStyle;curved=1;rounded=1;sketch=1;hachureGap=4;jiggle=2;curveFitting=1;orthogonalLoop=1;jettySize=auto;html=1;entryX=0;entryY=0.5;entryDx=0;entryDy=0;strokeWidth=1;fontFamily=Architects Daughter;fontSource=https%3A%2F%2Ffonts.googleapis.com%2Fcss%3Ffamily%3DArchitects%2BDaughter;fontSize=20;startSize=5;endSize=5;opacity=80;" edge="1" parent="1" source="6kAA_ubNPOUCkeBWZdui-3" target="6kAA_ubNPOUCkeBWZdui-33">
          <mxGeometry relative="1" as="geometry" />
        </mxCell>
        <mxCell id="6kAA_ubNPOUCkeBWZdui-3" value="知识门户B" style="ellipse;whiteSpace=wrap;html=1;labelBackgroundColor=none;fillColor=#cce5ff;strokeColor=#36393d;sketch=1;curveFitting=1;jiggle=2;rounded=1;fontStyle=1" vertex="1" parent="1">
          <mxGeometry x="30" y="270" width="120" height="70" as="geometry" />
        </mxCell>
        <mxCell id="6kAA_ubNPOUCkeBWZdui-12" style="edgeStyle=orthogonalEdgeStyle;rounded=1;orthogonalLoop=1;jettySize=auto;html=1;entryX=0;entryY=0.75;entryDx=0;entryDy=0;labelBackgroundColor=none;strokeColor=#006658;fontColor=default;sketch=1;curveFitting=1;jiggle=2;fontStyle=1" edge="1" parent="1" source="6kAA_ubNPOUCkeBWZdui-6" target="6kAA_ubNPOUCkeBWZdui-8">
          <mxGeometry relative="1" as="geometry" />
        </mxCell>
        <mxCell id="6kAA_ubNPOUCkeBWZdui-13" style="edgeStyle=orthogonalEdgeStyle;rounded=1;orthogonalLoop=1;jettySize=auto;html=1;entryX=0;entryY=0.5;entryDx=0;entryDy=0;labelBackgroundColor=none;strokeColor=#006658;fontColor=default;sketch=1;curveFitting=1;jiggle=2;fontStyle=1" edge="1" parent="1" source="6kAA_ubNPOUCkeBWZdui-6" target="6kAA_ubNPOUCkeBWZdui-9">
          <mxGeometry relative="1" as="geometry" />
        </mxCell>
        <mxCell id="6kAA_ubNPOUCkeBWZdui-6" value="知识类目A" style="rounded=1;whiteSpace=wrap;html=1;labelBackgroundColor=none;sketch=1;curveFitting=1;jiggle=2;fillColor=#fa6800;fontColor=#000000;strokeColor=#C73500;fontStyle=1" vertex="1" parent="1">
          <mxGeometry x="370" y="100" width="120" height="30" as="geometry" />
        </mxCell>
        <mxCell id="6kAA_ubNPOUCkeBWZdui-14" style="edgeStyle=orthogonalEdgeStyle;rounded=1;orthogonalLoop=1;jettySize=auto;html=1;labelBackgroundColor=none;strokeColor=#006658;fontColor=default;sketch=1;curveFitting=1;jiggle=2;fontStyle=1" edge="1" parent="1" source="6kAA_ubNPOUCkeBWZdui-7" target="6kAA_ubNPOUCkeBWZdui-10">
          <mxGeometry relative="1" as="geometry" />
        </mxCell>
        <mxCell id="6kAA_ubNPOUCkeBWZdui-15" style="edgeStyle=orthogonalEdgeStyle;rounded=1;orthogonalLoop=1;jettySize=auto;html=1;entryX=0;entryY=0.5;entryDx=0;entryDy=0;labelBackgroundColor=none;strokeColor=#006658;fontColor=default;sketch=1;curveFitting=1;jiggle=2;fontStyle=1" edge="1" parent="1" source="6kAA_ubNPOUCkeBWZdui-7" target="6kAA_ubNPOUCkeBWZdui-11">
          <mxGeometry relative="1" as="geometry" />
        </mxCell>
        <mxCell id="6kAA_ubNPOUCkeBWZdui-7" value="知识类目B" style="rounded=1;whiteSpace=wrap;html=1;labelBackgroundColor=none;sketch=1;curveFitting=1;jiggle=2;fillColor=#fa6800;fontColor=#000000;strokeColor=#C73500;fontStyle=1" vertex="1" parent="1">
          <mxGeometry x="370" y="200" width="120" height="30" as="geometry" />
        </mxCell>
        <mxCell id="6kAA_ubNPOUCkeBWZdui-8" value="知识A" style="rounded=1;whiteSpace=wrap;html=1;labelBackgroundColor=none;fillColor=#21C0A5;strokeColor=#006658;fontColor=#5C5C5C;sketch=1;curveFitting=1;jiggle=2;fontStyle=1" vertex="1" parent="1">
          <mxGeometry x="580" y="50" width="120" height="40" as="geometry" />
        </mxCell>
        <mxCell id="6kAA_ubNPOUCkeBWZdui-9" value="知识B" style="rounded=1;whiteSpace=wrap;html=1;labelBackgroundColor=none;fillColor=#21C0A5;strokeColor=#006658;fontColor=#5C5C5C;sketch=1;curveFitting=1;jiggle=2;fontStyle=1" vertex="1" parent="1">
          <mxGeometry x="580" y="110" width="120" height="40" as="geometry" />
        </mxCell>
        <mxCell id="6kAA_ubNPOUCkeBWZdui-10" value="知识C" style="rounded=1;whiteSpace=wrap;html=1;labelBackgroundColor=none;fillColor=#21C0A5;strokeColor=#006658;fontColor=#5C5C5C;sketch=1;curveFitting=1;jiggle=2;fontStyle=1" vertex="1" parent="1">
          <mxGeometry x="580" y="180" width="120" height="40" as="geometry" />
        </mxCell>
        <mxCell id="6kAA_ubNPOUCkeBWZdui-11" value="知识D" style="rounded=1;whiteSpace=wrap;html=1;labelBackgroundColor=none;fillColor=#21C0A5;strokeColor=#006658;fontColor=#5C5C5C;sketch=1;curveFitting=1;jiggle=2;fontStyle=1" vertex="1" parent="1">
          <mxGeometry x="580" y="250" width="120" height="40" as="geometry" />
        </mxCell>
        <mxCell id="6kAA_ubNPOUCkeBWZdui-23" style="edgeStyle=orthogonalEdgeStyle;rounded=1;orthogonalLoop=1;jettySize=auto;html=1;entryX=0.5;entryY=1;entryDx=0;entryDy=0;labelBackgroundColor=none;strokeColor=#006658;fontColor=default;sketch=1;curveFitting=1;jiggle=2;fontStyle=1;dashed=1;" edge="1" parent="1" source="6kAA_ubNPOUCkeBWZdui-21" target="6kAA_ubNPOUCkeBWZdui-11">
          <mxGeometry relative="1" as="geometry" />
        </mxCell>
        <mxCell id="6kAA_ubNPOUCkeBWZdui-24" value="不显示D" style="edgeLabel;html=1;align=center;verticalAlign=middle;resizable=0;points=[];labelBackgroundColor=none;fontColor=#5C5C5C;sketch=1;curveFitting=1;jiggle=2;rounded=1;fontStyle=1" vertex="1" connectable="0" parent="6kAA_ubNPOUCkeBWZdui-23">
          <mxGeometry x="-0.2909" y="-4" relative="1" as="geometry">
            <mxPoint as="offset" />
          </mxGeometry>
        </mxCell>
        <mxCell id="6kAA_ubNPOUCkeBWZdui-21" value="门户知识配置" style="shape=image;html=1;verticalLabelPosition=bottom;verticalAlign=top;imageAspect=0;image=img/clipart/Gear_128x128.png;labelBackgroundColor=none;fillColor=#21C0A5;strokeColor=#006658;fontColor=#5C5C5C;sketch=1;curveFitting=1;jiggle=2;rounded=1;fontStyle=1;direction=east;" vertex="1" parent="1">
          <mxGeometry x="330" y="330" width="40" height="40" as="geometry" />
        </mxCell>
        <mxCell id="6kAA_ubNPOUCkeBWZdui-28" style="edgeStyle=orthogonalEdgeStyle;curved=1;rounded=1;sketch=1;hachureGap=4;jiggle=2;curveFitting=1;orthogonalLoop=1;jettySize=auto;html=1;entryX=0.103;entryY=0.296;entryDx=0;entryDy=0;entryPerimeter=0;strokeWidth=1;fontFamily=Architects Daughter;fontSource=https%3A%2F%2Ffonts.googleapis.com%2Fcss%3Ffamily%3DArchitects%2BDaughter;fontSize=20;startSize=5;endSize=5;opacity=80;dashed=1;" edge="1" parent="1" source="6kAA_ubNPOUCkeBWZdui-26" target="6kAA_ubNPOUCkeBWZdui-20">
          <mxGeometry relative="1" as="geometry" />
        </mxCell>
        <mxCell id="6kAA_ubNPOUCkeBWZdui-26" value="门户类目配置" style="shape=image;html=1;verticalLabelPosition=bottom;verticalAlign=top;imageAspect=0;image=img/clipart/Gear_128x128.png;labelBackgroundColor=none;fillColor=#21C0A5;strokeColor=#006658;fontColor=#5C5C5C;sketch=1;curveFitting=1;jiggle=2;rounded=1;fontStyle=1" vertex="1" parent="1">
          <mxGeometry x="220" y="50" width="40" height="40" as="geometry" />
        </mxCell>
        <mxCell id="6kAA_ubNPOUCkeBWZdui-32" style="edgeStyle=orthogonalEdgeStyle;curved=1;rounded=1;sketch=1;hachureGap=4;jiggle=2;curveFitting=1;orthogonalLoop=1;jettySize=auto;html=1;entryX=0.103;entryY=0.63;entryDx=0;entryDy=0;entryPerimeter=0;strokeWidth=1;fontFamily=Architects Daughter;fontSource=https%3A%2F%2Ffonts.googleapis.com%2Fcss%3Ffamily%3DArchitects%2BDaughter;fontSize=20;startSize=5;endSize=5;opacity=80;dashed=1;" edge="1" parent="1" source="6kAA_ubNPOUCkeBWZdui-29" target="6kAA_ubNPOUCkeBWZdui-20">
          <mxGeometry relative="1" as="geometry" />
        </mxCell>
        <mxCell id="6kAA_ubNPOUCkeBWZdui-29" value="门户类目配置" style="shape=image;html=1;verticalLabelPosition=bottom;verticalAlign=top;imageAspect=0;image=img/clipart/Gear_128x128.png;labelBackgroundColor=none;fillColor=#21C0A5;strokeColor=#006658;fontColor=#5C5C5C;sketch=1;curveFitting=1;jiggle=2;rounded=1;fontStyle=1" vertex="1" parent="1">
          <mxGeometry x="220" y="120" width="40" height="40" as="geometry" />
        </mxCell>
        <mxCell id="6kAA_ubNPOUCkeBWZdui-35" style="edgeStyle=orthogonalEdgeStyle;curved=1;rounded=1;sketch=1;hachureGap=4;jiggle=2;curveFitting=1;orthogonalLoop=1;jettySize=auto;html=1;strokeWidth=1;fontFamily=Architects Daughter;fontSource=https%3A%2F%2Ffonts.googleapis.com%2Fcss%3Ffamily%3DArchitects%2BDaughter;fontSize=20;startSize=5;endSize=5;opacity=80;dashed=1;" edge="1" parent="1" source="6kAA_ubNPOUCkeBWZdui-33">
          <mxGeometry relative="1" as="geometry">
            <mxPoint x="360" y="210" as="targetPoint" />
          </mxGeometry>
        </mxCell>
        <mxCell id="6kAA_ubNPOUCkeBWZdui-33" value="门户类目配置" style="shape=image;html=1;verticalLabelPosition=bottom;verticalAlign=top;imageAspect=0;image=img/clipart/Gear_128x128.png;labelBackgroundColor=none;fillColor=#21C0A5;strokeColor=#006658;fontColor=#5C5C5C;sketch=1;curveFitting=1;jiggle=2;rounded=1;fontStyle=1" vertex="1" parent="1">
          <mxGeometry x="220" y="210" width="40" height="40" as="geometry" />
        </mxCell>
      </root>
    </mxGraphModel>
  </diagram>
</mxfile>
